<?xml version="1.0" encoding="UTF-8"?>
<!-- Generator: Adobe Illustrator 24.3.0, SVG Export Plug-In . SVG Version: 6.00 Build 0)  -->
<svg version="1.1" id="Calque_1" xmlns="http://www.w3.org/2000/svg" xmlns:xlink="http://www.w3.org/1999/xlink" x="0px" y="0px" viewBox="0 0 45.3 81.6" style="enable-background:new 0 0 45.3 81.6;" xml:space="preserve">
<style type="text/css">
	.st0{fill:#CE0E2D;}
</style>
<g>
	<path class="st0" d="M38.4,18.7L38.4,18.7h-3.1V5.4c0-3-2.4-5.4-5.4-5.4H15.2c-1.4,0-2.8,0.6-3.8,1.6S9.8,4,9.8,5.4v13.2H6.7   C3,18.6,0,21.7,0,25.4l0,0l0.1,45.9c0,3.3,2.5,6.1,5.6,6.6v2.9c0,0.4,0.3,0.8,0.8,0.8h4.1c0.4,0,0.8-0.3,0.8-0.8V78h22.2v2.8   c0,0.4,0.3,0.8,0.8,0.8h4.2c0.4,0,0.8-0.3,0.8-0.8V78c3.3-0.5,5.9-3.3,5.9-6.7v-46C45.1,21.7,42.1,18.7,38.4,18.7z M11.4,5.5   c0-1,0.4-2,1.1-2.8s1.7-1.2,2.8-1.2h14.6c2.1,0,3.9,1.7,3.9,3.9v13.2H11.4V5.5z M9.9,80H7.2v-2h2.7V80z M37.8,80h-2.7v-2h2.7V80z    M43.7,71.2c0,2.9-2.4,5.3-5.2,5.3H6.9c-2.9,0-5.2-2.4-5.3-5.3V25.4c0-2.9,2.3-5.2,5.2-5.2h3.5c0.1,0,0.2,0.1,0.3,0.1   s0.2,0,0.3-0.1h23.5h0.1h0.1h3.7l0,0c2.9,0,5.2,2.3,5.2,5.2v45.8H43.7z"/>
	<path class="st0" d="M33.9,25.6H11.4h-0.1c-3,0-5.4,2.4-5.4,5.4v3c0,0,0,0,0,0.1s0,0,0,0.1V66c0,3,2.4,5.4,5.4,5.4h22.6   c3,0,5.4-2.4,5.4-5.4V31C39.3,28,36.9,25.6,33.9,25.6z M33.9,69.8H11.3c-2.1,0-3.9-1.7-3.9-3.9V34.8h30.4v31.1   C37.8,68,36,69.8,33.9,69.8z M37.8,33.3H7.4V31c0-2.1,1.7-3.8,3.8-3.9h0.1h22.6c2.1,0,3.9,1.7,3.9,3.9V33.3z"/>
</g>
</svg>